<svg width="419" height="234" viewBox="0 0 419 234" fill="none" xmlns="http://www.w3.org/2000/svg">
<path d="M-19.7218 169.311C-19.7218 169.311 -47.3478 97.4578 -19.7218 57.6896C7.91556 17.9213 139.659 -47.0774 233.411 57.6896C327.163 162.457 342.955 180.004 342.955 180.004" fill="#F2F8FF"/>
<path d="M-19.7218 169.311C-19.7218 169.311 -47.3478 97.4578 -19.7218 57.6896C7.91556 17.9213 139.659 -47.0774 233.411 57.6896C327.163 162.457 342.955 180.004 342.955 180.004" stroke="#B4D6FF" stroke-width="0.33" stroke-miterlimit="10"/>
<path d="M-16.6699 170.586C-16.6699 170.586 -46.4436 98.7958 -18.5124 59.1218C9.43014 19.4478 137.749 -44.4013 229.489 57.658C321.229 159.717 345.566 177.384 340.92 180.104" fill="#F2F8FF"/>
<path d="M-16.6699 170.586C-16.6699 170.586 -46.4436 98.7958 -18.5124 59.1218C9.43014 19.4478 137.749 -44.4013 229.489 57.658C321.229 159.717 345.566 177.384 340.92 180.104" stroke="#B4D6FF" stroke-width="0.33" stroke-miterlimit="10"/>
<path d="M-13.618 171.855C-13.618 171.855 -45.5507 100.134 -17.303 60.5481C10.9447 20.9621 135.838 -41.731 225.566 57.6205C315.294 156.972 348.177 174.751 338.885 180.192" fill="#F2F8FF"/>
<path d="M-13.618 171.855C-13.618 171.855 -45.5507 100.134 -17.303 60.5481C10.9447 20.9621 135.838 -41.731 225.566 57.6205C315.294 156.972 348.177 174.751 338.885 180.192" stroke="#B4D6FF" stroke-width="0.33" stroke-miterlimit="10"/>
<path d="M-10.5771 173.131C-10.5771 173.131 -44.6462 101.473 -16.0933 61.9807C12.4709 22.4889 133.939 -39.0545 221.656 57.5955C309.372 154.246 350.799 172.138 336.862 180.299" fill="#F2F8FF"/>
<path d="M-10.5771 173.131C-10.5771 173.131 -44.6462 101.473 -16.0933 61.9807C12.4709 22.4889 133.939 -39.0545 221.656 57.5955C309.372 154.246 350.799 172.138 336.862 180.299" stroke="#B4D6FF" stroke-width="0.33" stroke-miterlimit="10"/>
<path d="M-7.5252 174.406C-7.5252 174.406 -43.7533 102.81 -14.8838 63.4129C13.9856 24.0091 132.029 -36.3784 217.733 57.5639C303.437 151.5 353.41 169.512 334.827 180.399" fill="#F2F8FF"/>
<path d="M-7.5252 174.406C-7.5252 174.406 -43.7533 102.81 -14.8838 63.4129C13.9856 24.0091 132.029 -36.3784 217.733 57.5639C303.437 151.5 353.41 169.512 334.827 180.399" stroke="#B4D6FF" stroke-width="0.33" stroke-miterlimit="10"/>
<path d="M-4.47327 175.681C-4.47327 175.681 -42.849 104.149 -13.6744 64.8392C15.5115 25.5296 130.119 -33.7081 213.811 57.5264C297.503 148.761 356.021 166.886 332.804 180.488" fill="#F2F8FF"/>
<path d="M-4.47327 175.681C-4.47327 175.681 -42.849 104.149 -13.6744 64.8392C15.5115 25.5296 130.119 -33.7081 213.811 57.5264C297.503 148.761 356.021 166.886 332.804 180.488" stroke="#B4D6FF" stroke-width="0.33" stroke-miterlimit="10"/>
<path d="M-1.43262 176.957C-1.43262 176.957 -41.9448 105.487 -12.4649 66.2715C17.0262 27.0561 128.209 -31.0319 209.888 57.4948C291.568 146.022 358.633 164.26 330.769 180.588" fill="#F2F8FF"/>
<path d="M-1.43262 176.957C-1.43262 176.957 -41.9448 105.487 -12.4649 66.2715C17.0262 27.0561 128.209 -31.0319 209.888 57.4948C291.568 146.022 358.633 164.26 330.769 180.588" stroke="#B4D6FF" stroke-width="0.33" stroke-miterlimit="10"/>
<path d="M1.61942 178.232C1.61942 178.232 -41.0517 106.825 -11.2554 67.7039C18.5409 28.5764 126.298 -28.3556 205.966 57.4634C285.634 143.282 361.244 161.634 328.735 180.682" fill="#F2F8FF"/>
<path d="M1.61942 178.232C1.61942 178.232 -41.0517 106.825 -11.2554 67.7039C18.5409 28.5764 126.298 -28.3556 205.966 57.4634C285.634 143.282 361.244 161.634 328.735 180.682" stroke="#B4D6FF" stroke-width="0.33" stroke-miterlimit="10"/>
<path d="M4.66001 179.507C4.66001 179.507 -40.1475 108.169 -10.046 69.13C20.0668 30.0968 124.399 -25.6856 202.044 57.4257C279.699 140.537 363.855 159.007 326.7 180.776" fill="#F2F8FF"/>
<path d="M4.66001 179.507C4.66001 179.507 -40.1475 108.169 -10.046 69.13C20.0668 30.0968 124.399 -25.6856 202.044 57.4257C279.699 140.537 363.855 159.007 326.7 180.776" stroke="#B4D6FF" stroke-width="0.33" stroke-miterlimit="10"/>
<path d="M7.71227 180.776C7.71227 180.776 -39.2542 109.508 -8.83621 70.5625C21.5818 31.6172 122.489 -23.0092 198.133 57.4006C273.777 137.804 366.478 156.388 324.677 180.877" fill="#F2F8FF"/>
<path d="M7.71227 180.776C7.71227 180.776 -39.2542 109.508 -8.83621 70.5625C21.5818 31.6172 122.489 -23.0092 198.133 57.4006C273.777 137.804 366.478 156.388 324.677 180.877" stroke="#B4D6FF" stroke-width="0.33" stroke-miterlimit="10"/>
<path d="M10.7641 182.052C10.7641 182.052 -38.3501 110.846 -7.6269 71.9949C23.0963 33.1438 120.579 -20.3328 194.21 57.3692C267.842 135.071 369.088 153.768 322.642 180.977" fill="#F2F8FF"/>
<path d="M10.7641 182.052C10.7641 182.052 -38.3501 110.846 -7.6269 71.9949C23.0963 33.1438 120.579 -20.3328 194.21 57.3692C267.842 135.071 369.088 153.768 322.642 180.977" stroke="#B4D6FF" stroke-width="0.33" stroke-miterlimit="10"/>
<path d="M13.8047 183.327C13.8047 183.327 -37.4459 112.184 -6.41745 73.421C24.6223 34.658 118.668 -17.6627 190.288 57.3315C261.908 132.326 371.688 151.136 320.607 181.065" fill="#F2F8FF"/>
<path d="M13.8047 183.327C13.8047 183.327 -37.4459 112.184 -6.41745 73.421C24.6223 34.658 118.668 -17.6627 190.288 57.3315C261.908 132.326 371.688 151.136 320.607 181.065" stroke="#B4D6FF" stroke-width="0.33" stroke-miterlimit="10"/>
<path d="M16.8566 184.603C16.8566 184.603 -36.553 113.522 -5.20806 74.8535C26.1369 36.1847 116.758 -14.9863 186.366 57.3002C255.973 129.587 374.299 148.516 318.573 181.166" fill="#F2F8FF"/>
<path d="M16.8566 184.603C16.8566 184.603 -36.553 113.522 -5.20806 74.8535C26.1369 36.1847 116.758 -14.9863 186.366 57.3002C255.973 129.587 374.299 148.516 318.573 181.166" stroke="#B4D6FF" stroke-width="0.33" stroke-miterlimit="10"/>
<path d="M19.9087 185.878C19.9087 185.878 -35.6485 114.861 -3.99841 76.2859C27.663 37.7051 114.859 -12.3099 182.443 57.2688C250.039 126.848 376.911 145.89 316.538 181.26" fill="#F2F8FF"/>
<path d="M19.9087 185.878C19.9087 185.878 -35.6485 114.861 -3.99841 76.2859C27.663 37.7051 114.859 -12.3099 182.443 57.2688C250.039 126.848 376.911 145.89 316.538 181.26" stroke="#B4D6FF" stroke-width="0.33" stroke-miterlimit="10"/>
<path d="M22.9494 187.153C22.9494 187.153 -34.7556 116.198 -2.78895 77.7119C29.1777 39.2252 112.949 -9.64009 178.521 57.2372C244.105 124.114 379.522 143.264 314.503 181.361" fill="#F2F8FF"/>
<path d="M22.9494 187.153C22.9494 187.153 -34.7556 116.198 -2.78895 77.7119C29.1777 39.2252 112.949 -9.64009 178.521 57.2372C244.105 124.114 379.522 143.264 314.503 181.361" stroke="#B4D6FF" stroke-width="0.33" stroke-miterlimit="10"/>
<path d="M26.0014 188.428C26.0014 188.428 -33.8512 117.543 -1.57944 79.1443C30.6924 40.752 111.038 -6.96365 174.61 57.2058C238.181 121.375 382.144 140.644 312.48 181.461" fill="#F2F8FF"/>
<path d="M26.0014 188.428C26.0014 188.428 -33.8512 117.543 -1.57944 79.1443C30.6924 40.752 111.038 -6.96365 174.61 57.2058C238.181 121.375 382.144 140.644 312.48 181.461" stroke="#B4D6FF" stroke-width="0.33" stroke-miterlimit="10"/>
<path d="M29.042 189.698C29.042 189.698 -32.947 118.881 -0.369948 80.5767C32.2184 42.2723 109.128 -4.28734 170.688 57.1744C232.247 118.636 384.755 138.018 310.457 181.555" fill="#F2F8FF"/>
<path d="M29.042 189.698C29.042 189.698 -32.947 118.881 -0.369948 80.5767C32.2184 42.2723 109.128 -4.28734 170.688 57.1744C232.247 118.636 384.755 138.018 310.457 181.555" stroke="#B4D6FF" stroke-width="0.33" stroke-miterlimit="10"/>
<path d="M32.0938 190.973C32.0938 190.973 -32.0541 120.219 0.839356 82.0029C33.7329 43.7927 107.218 -1.61724 166.765 57.1367C226.312 115.891 387.366 135.392 308.422 181.65" fill="#F2F8FF"/>
<path d="M32.0938 190.973C32.0938 190.973 -32.0541 120.219 0.839356 82.0029C33.7329 43.7927 107.218 -1.61724 166.765 57.1367C226.312 115.891 387.366 135.392 308.422 181.65" stroke="#B4D6FF" stroke-width="0.33" stroke-miterlimit="10"/>
<path d="M35.1458 192.248C35.1458 192.248 -31.1498 121.558 2.04886 83.4353C35.2589 45.3131 105.319 1.05917 162.843 57.1054C220.367 113.152 389.977 132.766 306.387 181.744" fill="#F2F8FF"/>
<path d="M35.1458 192.248C35.1458 192.248 -31.1498 121.558 2.04886 83.4353C35.2589 45.3131 105.319 1.05917 162.843 57.1054C220.367 113.152 389.977 132.766 306.387 181.744" stroke="#B4D6FF" stroke-width="0.33" stroke-miterlimit="10"/>
<path d="M38.1867 193.524C38.1867 193.524 -30.2567 122.896 3.25855 84.8678C36.7738 46.8398 103.409 3.73551 158.921 57.074C214.444 110.419 392.6 130.146 304.353 181.845" fill="#F2F8FF"/>
<path d="M38.1867 193.524C38.1867 193.524 -30.2567 122.896 3.25855 84.8678C36.7738 46.8398 103.409 3.73551 158.921 57.074C214.444 110.419 392.6 130.146 304.353 181.845" stroke="#B4D6FF" stroke-width="0.33" stroke-miterlimit="10"/>
<path d="M41.2387 194.799C41.2387 194.799 -29.3524 124.234 4.46804 86.2937C38.2884 48.3537 101.498 6.40537 154.998 57.0424C208.51 107.679 395.211 127.519 302.33 181.939" fill="#F2F8FF"/>
<path d="M41.2387 194.799C41.2387 194.799 -29.3524 124.234 4.46804 86.2937C38.2884 48.3537 101.498 6.40537 154.998 57.0424C208.51 107.679 395.211 127.519 302.33 181.939" stroke="#B4D6FF" stroke-width="0.33" stroke-miterlimit="10"/>
<path d="M44.2904 196.074C44.2904 196.074 -28.4483 125.572 5.67731 87.7262C39.8142 49.8804 99.5877 9.08178 151.087 57.011C202.575 104.94 397.822 124.893 300.295 182.039" fill="#F2F8FF"/>
<path d="M44.2904 196.074C44.2904 196.074 -28.4483 125.572 5.67731 87.7262C39.8142 49.8804 99.5877 9.08178 151.087 57.011C202.575 104.94 397.822 124.893 300.295 182.039" stroke="#B4D6FF" stroke-width="0.33" stroke-miterlimit="10"/>
<path d="M47.3311 197.35C47.3311 197.35 -27.5553 126.91 6.88684 89.1586C41.3289 51.4007 97.6774 11.7581 147.165 56.9796C196.641 102.201 400.433 122.274 298.26 182.133" fill="#F2F8FF"/>
<path d="M47.3311 197.35C47.3311 197.35 -27.5553 126.91 6.88684 89.1586C41.3289 51.4007 97.6774 11.7581 147.165 56.9796C196.641 102.201 400.433 122.274 298.26 182.133" stroke="#B4D6FF" stroke-width="0.33" stroke-miterlimit="10"/>
<path d="M50.3834 198.619C50.3834 198.619 -26.6507 128.255 8.09655 90.591C42.8552 52.9274 95.7786 14.4345 143.243 56.9482C190.706 99.4619 403.045 119.648 296.226 182.234" fill="#F2F8FF"/>
<path d="M50.3834 198.619C50.3834 198.619 -26.6507 128.255 8.09655 90.591C42.8552 52.9274 95.7786 14.4345 143.243 56.9482C190.706 99.4619 403.045 119.648 296.226 182.234" stroke="#B4D6FF" stroke-width="0.33" stroke-miterlimit="10"/>
<path d="M53.424 199.894C53.424 199.894 -25.7578 129.593 9.30605 92.0172C44.3698 54.4415 93.8684 17.1046 139.32 56.9106C184.772 96.7165 405.656 117.022 294.202 182.328" fill="#F2F8FF"/>
<path d="M53.424 199.894C53.424 199.894 -25.7578 129.593 9.30605 92.0172C44.3698 54.4415 93.8684 17.1046 139.32 56.9106C184.772 96.7165 405.656 117.022 294.202 182.328" stroke="#B4D6FF" stroke-width="0.33" stroke-miterlimit="10"/>
<path d="M56.4759 201.169C56.4759 201.169 -24.8536 130.931 10.5154 93.4496C45.8844 55.9682 91.9579 19.781 135.398 56.8854C178.849 93.9836 408.267 114.402 292.167 182.422" fill="#F2F8FF"/>
<path d="M56.4759 201.169C56.4759 201.169 -24.8536 130.931 10.5154 93.4496C45.8844 55.9682 91.9579 19.781 135.398 56.8854C178.849 93.9836 408.267 114.402 292.167 182.422" stroke="#B4D6FF" stroke-width="0.33" stroke-miterlimit="10"/>
<path d="M59.528 202.445C59.528 202.445 -23.9492 132.269 11.725 94.8821C47.4105 57.4949 90.0478 22.4574 131.476 56.8541C172.903 91.2508 410.878 111.776 290.133 182.523" fill="#F2F8FF"/>
<path d="M59.528 202.445C59.528 202.445 -23.9492 132.269 11.725 94.8821C47.4105 57.4949 90.0478 22.4574 131.476 56.8541C172.903 91.2508 410.878 111.776 290.133 182.523" stroke="#B4D6FF" stroke-width="0.33" stroke-miterlimit="10"/>
<path d="M62.5685 203.72C62.5685 203.72 -23.0563 133.607 12.9343 96.308C48.925 59.0088 88.1373 25.1272 127.564 56.8162C166.98 88.5114 413.5 109.149 288.098 182.617" fill="#F2F8FF"/>
<path d="M62.5685 203.72C62.5685 203.72 -23.0563 133.607 12.9343 96.308C48.925 59.0088 88.1373 25.1272 127.564 56.8162C166.98 88.5114 413.5 109.149 288.098 182.617" stroke="#B4D6FF" stroke-width="0.33" stroke-miterlimit="10"/>
<path d="M65.6207 204.995C65.6207 204.995 -22.1519 134.945 14.144 97.7405C50.4399 60.5355 86.2385 27.8036 123.642 56.7848C161.046 85.7723 416.112 106.53 286.075 182.718" fill="#F2F8FF"/>
<path d="M65.6207 204.995C65.6207 204.995 -22.1519 134.945 14.144 97.7405C50.4399 60.5355 86.2385 27.8036 123.642 56.7848C161.046 85.7723 416.112 106.53 286.075 182.718" stroke="#B4D6FF" stroke-width="0.33" stroke-miterlimit="10"/>
<path d="M68.6726 206.271C68.6726 206.271 -21.2589 136.284 15.3535 99.1729C51.9659 62.0559 84.3281 30.4737 119.72 56.7534C155.111 83.0332 418.723 103.904 284.04 182.812" fill="#F2F8FF"/>
<path d="M68.6726 206.271C68.6726 206.271 -21.2589 136.284 15.3535 99.1729C51.9659 62.0559 84.3281 30.4737 119.72 56.7534C155.111 83.0332 418.723 103.904 284.04 182.812" stroke="#B4D6FF" stroke-width="0.33" stroke-miterlimit="10"/>
<path d="M71.7133 207.546C71.7133 207.546 -20.3546 137.622 16.563 100.599C53.4806 63.5763 82.4178 33.1438 115.797 56.7158C149.177 80.2877 421.323 101.271 282.006 182.906" fill="#F2F8FF"/>
<path d="M71.7133 207.546C71.7133 207.546 -20.3546 137.622 16.563 100.599C53.4806 63.5763 82.4178 33.1438 115.797 56.7158C149.177 80.2877 421.323 101.271 282.006 182.906" stroke="#B4D6FF" stroke-width="0.33" stroke-miterlimit="10"/>
<path d="M74.7651 208.815C74.7651 208.815 -19.4505 138.966 17.7723 102.031C55.0064 65.0966 80.5073 35.8202 111.875 56.6906C143.242 77.5548 423.934 98.6578 279.971 183.007" fill="#F2F8FF"/>
<path d="M74.7651 208.815C74.7651 208.815 -19.4505 138.966 17.7723 102.031C55.0064 65.0966 80.5073 35.8202 111.875 56.6906C143.242 77.5548 423.934 98.6578 279.971 183.007" stroke="#B4D6FF" stroke-width="0.33" stroke-miterlimit="10"/>
<path d="M77.8058 210.091C77.8058 210.091 -18.5575 140.305 18.9818 103.464C56.5211 66.6233 78.597 38.4965 107.952 56.6592C137.308 74.8157 426.545 96.0317 277.936 183.107" fill="#F2F8FF"/>
<path d="M77.8058 210.091C77.8058 210.091 -18.5575 140.305 18.9818 103.464C56.5211 66.6233 78.597 38.4965 107.952 56.6592C137.308 74.8157 426.545 96.0317 277.936 183.107" stroke="#B4D6FF" stroke-width="0.33" stroke-miterlimit="10"/>
<path d="M80.8579 211.366C80.8579 211.366 -17.653 141.643 20.1914 104.89C58.0359 68.1372 76.6982 41.1664 104.042 56.6214C131.385 72.0763 429.167 93.4054 275.913 183.201" fill="#F2F8FF"/>
<path d="M80.8579 211.366C80.8579 211.366 -17.653 141.643 20.1914 104.89C58.0359 68.1372 76.6982 41.1664 104.042 56.6214C131.385 72.0763 429.167 93.4054 275.913 183.201" stroke="#B4D6FF" stroke-width="0.33" stroke-miterlimit="10"/>
<path d="M83.9097 212.641C83.9097 212.641 -16.7602 142.981 21.4008 106.323C59.5618 69.6641 74.7877 43.843 100.119 56.5902C125.451 69.3374 431.778 90.7796 273.878 183.296" fill="#F2F8FF"/>
<path d="M83.9097 212.641C83.9097 212.641 -16.7602 142.981 21.4008 106.323C59.5618 69.6641 74.7877 43.843 100.119 56.5902C125.451 69.3374 431.778 90.7796 273.878 183.296" stroke="#B4D6FF" stroke-width="0.33" stroke-miterlimit="10"/>
<path d="M86.9503 213.917C86.9503 213.917 -15.856 144.319 22.6102 107.755C61.0763 71.1908 72.8773 46.5194 96.1967 56.5589C119.516 66.5983 434.389 88.1599 271.843 183.39" fill="#F2F8FF"/>
<path d="M86.9503 213.917C86.9503 213.917 -15.856 144.319 22.6102 107.755C61.0763 71.1908 72.8773 46.5194 96.1967 56.5589C119.516 66.5983 434.389 88.1599 271.843 183.39" stroke="#B4D6FF" stroke-width="0.33" stroke-miterlimit="10"/>
<path d="M90.0024 215.192C90.0024 215.192 -14.9516 145.657 23.8198 109.181C62.6025 72.7047 70.9671 49.1893 92.2745 56.5273C113.582 63.8652 437.001 85.5336 269.809 183.49" fill="#F2F8FF"/>
<path d="M90.0024 215.192C90.0024 215.192 -14.9516 145.657 23.8198 109.181C62.6025 72.7047 70.9671 49.1893 92.2745 56.5273C113.582 63.8652 437.001 85.5336 269.809 183.49" stroke="#B4D6FF" stroke-width="0.33" stroke-miterlimit="10"/>
<path d="M93.0545 216.467C93.0545 216.467 -14.0585 146.995 25.0293 110.613C64.1172 74.2314 69.0682 51.8657 88.3522 56.4959C107.636 61.1261 439.612 82.9075 267.786 183.585" fill="#F2F8FF"/>
<path d="M93.0545 216.467C93.0545 216.467 -14.0585 146.995 25.0293 110.613C64.1172 74.2314 69.0682 51.8657 88.3522 56.4959C107.636 61.1261 439.612 82.9075 267.786 183.585" stroke="#B4D6FF" stroke-width="0.33" stroke-miterlimit="10"/>
<path d="M96.0951 217.736C96.0951 217.736 -13.1543 148.34 26.2388 112.046C65.6319 75.7517 67.1579 54.542 84.4298 56.4644C101.713 58.3869 442.223 80.2877 265.751 183.685" fill="#F2F8FF"/>
<path d="M96.0951 217.736C96.0951 217.736 -13.1543 148.34 26.2388 112.046C65.6319 75.7517 67.1579 54.542 84.4298 56.4644C101.713 58.3869 442.223 80.2877 265.751 183.685" stroke="#B4D6FF" stroke-width="0.33" stroke-miterlimit="10"/>
<path d="M99.1469 219.012C99.1469 219.012 -12.2615 149.678 27.4481 113.472C67.1577 77.2722 65.2474 57.2121 80.5186 56.4268C95.7897 55.6415 444.845 77.6554 263.727 183.779" fill="#F2F8FF"/>
<path d="M99.1469 219.012C99.1469 219.012 -12.2615 149.678 27.4481 113.472C67.1577 77.2722 65.2474 57.2121 80.5186 56.4268C95.7897 55.6415 444.845 77.6554 263.727 183.779" stroke="#B4D6FF" stroke-width="0.33" stroke-miterlimit="10"/>
<path d="M102.188 220.287C102.188 220.287 -11.3572 151.016 28.6575 114.904C68.6723 78.7925 63.337 59.8885 76.5962 56.3954C89.8553 52.9024 447.456 75.0356 261.693 183.874" fill="#F2F8FF"/>
<path d="M102.188 220.287C102.188 220.287 -11.3572 151.016 28.6575 114.904C68.6723 78.7925 63.337 59.8885 76.5962 56.3954C89.8553 52.9024 447.456 75.0356 261.693 183.874" stroke="#B4D6FF" stroke-width="0.33" stroke-miterlimit="10"/>
<path d="M105.24 221.563C105.24 221.563 -10.4527 152.354 29.8672 116.337C70.1985 80.3193 61.4269 62.5649 72.674 56.3641C83.9211 50.1632 450.068 72.4096 259.658 183.974" fill="#F2F8FF"/>
<path d="M105.24 221.563C105.24 221.563 -10.4527 152.354 29.8672 116.337C70.1985 80.3193 61.4269 62.5649 72.674 56.3641C83.9211 50.1632 450.068 72.4096 259.658 183.974" stroke="#B4D6FF" stroke-width="0.33" stroke-miterlimit="10"/>
<path d="M108.292 222.838C108.292 222.838 -9.55986 153.693 31.0766 117.763C71.7131 81.8334 59.5278 65.235 68.7516 56.3327C77.9753 47.4304 452.679 69.7898 257.624 184.069" fill="#F2F8FF"/>
<path d="M108.292 222.838C108.292 222.838 -9.55986 153.693 31.0766 117.763C71.7131 81.8334 59.5278 65.235 68.7516 56.3327C77.9753 47.4304 452.679 69.7898 257.624 184.069" stroke="#B4D6FF" stroke-width="0.33" stroke-miterlimit="10"/>
<path d="M111.332 224.113C111.332 224.113 -8.65557 155.031 32.2861 119.195C73.2278 83.3598 57.6175 67.9112 64.8292 56.3011C72.0409 44.691 455.29 67.1635 255.589 184.169" fill="#F2F8FF"/>
<path d="M111.332 224.113C111.332 224.113 -8.65557 155.031 32.2861 119.195C73.2278 83.3598 57.6175 67.9112 64.8292 56.3011C72.0409 44.691 455.29 67.1635 255.589 184.169" stroke="#B4D6FF" stroke-width="0.33" stroke-miterlimit="10"/>
<path d="M114.384 225.388C114.384 225.388 -7.76255 156.369 33.4956 120.628C74.7538 84.8865 55.7072 70.5875 60.9069 56.2697C66.1065 41.9519 457.901 64.5375 253.554 184.263" fill="#F2F8FF"/>
<path d="M114.384 225.388C114.384 225.388 -7.76255 156.369 33.4956 120.628C74.7538 84.8865 55.7072 70.5875 60.9069 56.2697C66.1065 41.9519 457.901 64.5375 253.554 184.263" stroke="#B4D6FF" stroke-width="0.33" stroke-miterlimit="10"/>
<path d="M117.436 226.657C117.436 226.657 -6.85826 157.707 34.7051 122.06C76.2685 86.4069 53.7969 73.2638 56.9845 56.2383C60.1722 39.2127 460.512 61.9177 251.52 184.364" fill="#F2F8FF"/>
<path d="M117.436 226.657C117.436 226.657 -6.85826 157.707 34.7051 122.06C76.2685 86.4069 53.7969 73.2638 56.9845 56.2383C60.1722 39.2127 460.512 61.9177 251.52 184.364" stroke="#B4D6FF" stroke-width="0.33" stroke-miterlimit="10"/>
<path d="M120.477 227.933C120.477 227.933 -5.95408 159.051 35.9145 123.486C77.7944 87.9273 51.8865 75.934 53.0734 56.2006C54.2489 36.4673 463.134 59.2853 249.496 184.452" fill="#F2F8FF"/>
<path d="M120.477 227.933C120.477 227.933 -5.95408 159.051 35.9145 123.486C77.7944 87.9273 51.8865 75.934 53.0734 56.2006C54.2489 36.4673 463.134 59.2853 249.496 184.452" stroke="#B4D6FF" stroke-width="0.33" stroke-miterlimit="10"/>
<path d="M123.529 229.208C123.529 229.208 -5.06107 160.39 37.124 124.919C79.3091 89.4477 49.9875 78.6104 49.151 56.1755C48.3146 33.7407 465.746 56.6718 247.462 184.558" fill="#F2F8FF"/>
<path d="M123.529 229.208C123.529 229.208 -5.06107 160.39 37.124 124.919C79.3091 89.4477 49.9875 78.6104 49.151 56.1755C48.3146 33.7407 465.746 56.6718 247.462 184.558" stroke="#B4D6FF" stroke-width="0.33" stroke-miterlimit="10"/>
<path d="M126.57 230.484C126.57 230.484 -4.1567 161.728 38.3336 126.351C80.8238 90.9744 48.0773 81.2867 45.2288 56.1442C42.3803 31.0016 468.357 54.0458 245.438 184.653" fill="#F2F8FF"/>
<path d="M126.57 230.484C126.57 230.484 -4.1567 161.728 38.3336 126.351C80.8238 90.9744 48.0773 81.2867 45.2288 56.1442C42.3803 31.0016 468.357 54.0458 245.438 184.653" stroke="#B4D6FF" stroke-width="0.33" stroke-miterlimit="10"/>
<path d="M129.621 231.759C129.621 231.759 -3.2639 163.066 39.5429 127.777C82.3496 92.4885 46.1668 83.9568 41.3062 56.1065C36.4457 28.2562 470.968 51.4198 243.403 184.747" fill="#F2F8FF"/>
<path d="M129.621 231.759C129.621 231.759 -3.2639 163.066 39.5429 127.777C82.3496 92.4885 46.1668 83.9568 41.3062 56.1065C36.4457 28.2562 470.968 51.4198 243.403 184.747" stroke="#B4D6FF" stroke-width="0.33" stroke-miterlimit="10"/>
<path d="M132.674 233.034C132.674 233.034 -2.3593 164.404 40.7527 129.21C83.8646 94.0149 44.2568 86.633 37.3842 56.0749C30.5116 25.5168 473.568 48.7935 241.369 184.847" fill="#F2F8FF"/>
<path d="M132.674 233.034C132.674 233.034 -2.3593 164.404 40.7527 129.21C83.8646 94.0149 44.2568 86.633 37.3842 56.0749C30.5116 25.5168 473.568 48.7935 241.369 184.847" stroke="#B4D6FF" stroke-width="0.33" stroke-miterlimit="10"/>
<path d="M135.714 234.31C135.714 234.31 -1.45503 165.742 41.9621 130.642C85.3793 95.5353 42.3465 89.3094 33.4618 56.0435C24.5772 22.7839 476.179 46.1674 239.334 184.942" fill="#F2F8FF"/>
<path d="M135.714 234.31C135.714 234.31 -1.45503 165.742 41.9621 130.642C85.3793 95.5353 42.3465 89.3094 33.4618 56.0435C24.5772 22.7839 476.179 46.1674 239.334 184.942" stroke="#B4D6FF" stroke-width="0.33" stroke-miterlimit="10"/>
<path d="M135.624 234.511C135.624 234.511 0.455199 165.315 44.4489 130.636C88.4425 95.9564 45.7149 89.4666 37.5763 56.2824C29.4377 23.0919 478.745 49.3653 239.877 186.022" fill="#F2F8FF"/>
<path d="M135.624 234.511C135.624 234.511 0.455199 165.315 44.4489 130.636C88.4425 95.9564 45.7149 89.4666 37.5763 56.2824C29.4377 23.0919 478.745 49.3653 239.877 186.022" stroke="#B4D6FF" stroke-width="0.33" stroke-miterlimit="10"/>
<path d="M135.522 234.712C135.522 234.712 2.36546 164.888 46.9356 130.636C91.5057 96.3835 49.0833 89.6361 41.6907 56.521C34.2982 23.4059 481.299 52.5568 240.419 187.103" fill="#F2F8FF"/>
<path d="M135.522 234.712C135.522 234.712 2.36546 164.888 46.9356 130.636C91.5057 96.3835 49.0833 89.6361 41.6907 56.521C34.2982 23.4059 481.299 52.5568 240.419 187.103" stroke="#B4D6FF" stroke-width="0.33" stroke-miterlimit="10"/>
<path d="M135.432 234.913C135.432 234.913 4.27585 164.461 49.4225 130.629C94.5691 96.8043 52.4518 89.7993 45.8053 56.7597C39.1588 23.72 483.865 55.7545 240.973 188.183" fill="#F2F8FF"/>
<path d="M135.432 234.913C135.432 234.913 4.27585 164.461 49.4225 130.629C94.5691 96.8043 52.4518 89.7993 45.8053 56.7597C39.1588 23.72 483.865 55.7545 240.973 188.183" stroke="#B4D6FF" stroke-width="0.33" stroke-miterlimit="10"/>
<path d="M135.33 235.114C135.33 235.114 6.18603 164.027 51.9091 130.629C97.6322 97.2317 55.8202 89.9628 49.9084 56.9985C43.9966 24.0342 486.409 58.9461 241.505 189.264" fill="#F2F8FF"/>
<path d="M135.33 235.114C135.33 235.114 6.18603 164.027 51.9091 130.629C97.6322 97.2317 55.8202 89.9628 49.9084 56.9985C43.9966 24.0342 486.409 58.9461 241.505 189.264" stroke="#B4D6FF" stroke-width="0.33" stroke-miterlimit="10"/>
<path d="M135.228 235.315C135.228 235.315 8.09646 163.6 54.396 130.63C100.696 97.6527 59.1888 90.1326 54.023 57.2374C48.8686 24.3485 488.975 62.144 242.047 190.345" fill="#F2F8FF"/>
<path d="M135.228 235.315C135.228 235.315 8.09646 163.6 54.396 130.63C100.696 97.6527 59.1888 90.1326 54.023 57.2374C48.8686 24.3485 488.975 62.144 242.047 190.345" stroke="#B4D6FF" stroke-width="0.33" stroke-miterlimit="10"/>
<path d="M135.138 235.516C135.138 235.516 10.018 163.173 56.8828 130.623C103.759 98.0735 62.5459 90.2958 58.1375 57.476C53.7177 24.6562 491.529 65.3354 242.59 191.425" fill="#F2F8FF"/>
<path d="M135.138 235.516C135.138 235.516 10.018 163.173 56.8828 130.623C103.759 98.0735 62.5459 90.2958 58.1375 57.476C53.7177 24.6562 491.529 65.3354 242.59 191.425" stroke="#B4D6FF" stroke-width="0.33" stroke-miterlimit="10"/>
<path d="M135.036 235.717C135.036 235.717 11.9282 162.746 59.3808 130.623C106.833 98.5006 65.9256 90.4591 62.2519 57.7146C58.5782 24.9702 494.095 68.5331 243.144 192.506" fill="#F2F8FF"/>
<path d="M135.036 235.717C135.036 235.717 11.9282 162.746 59.3808 130.623C106.833 98.5006 65.9256 90.4591 62.2519 57.7146C58.5782 24.9702 494.095 68.5331 243.144 192.506" stroke="#B4D6FF" stroke-width="0.33" stroke-miterlimit="10"/>
<path d="M134.945 235.924C134.945 235.924 13.8386 162.318 61.8676 130.623C109.897 98.928 69.2941 90.6288 66.3665 57.9598C63.4388 25.2908 496.65 71.7311 243.686 193.593" fill="#F2F8FF"/>
<path d="M134.945 235.924C134.945 235.924 13.8386 162.318 61.8676 130.623C109.897 98.928 69.2941 90.6288 66.3665 57.9598C63.4388 25.2908 496.65 71.7311 243.686 193.593" stroke="#B4D6FF" stroke-width="0.33" stroke-miterlimit="10"/>
<path d="M134.844 236.125C134.844 236.125 15.749 161.891 64.3546 130.617C112.96 99.3489 72.6627 90.7858 70.4811 58.1922C68.2995 25.5985 499.216 74.9162 244.229 194.667" fill="#F2F8FF"/>
<path d="M134.844 236.125C134.844 236.125 15.749 161.891 64.3546 130.617C112.96 99.3489 72.6627 90.7858 70.4811 58.1922C68.2995 25.5985 499.216 74.9162 244.229 194.667" stroke="#B4D6FF" stroke-width="0.33" stroke-miterlimit="10"/>
<path d="M134.753 236.326C134.753 236.326 17.6592 161.458 66.8412 130.617C116.023 99.7697 76.031 90.9553 74.5955 58.4371C73.1599 25.9125 501.77 78.1202 244.771 195.76" fill="#F2F8FF"/>
<path d="M134.753 236.326C134.753 236.326 17.6592 161.458 66.8412 130.617C116.023 99.7697 76.031 90.9553 74.5955 58.4371C73.1599 25.9125 501.77 78.1202 244.771 195.76" stroke="#B4D6FF" stroke-width="0.33" stroke-miterlimit="10"/>
<path d="M134.652 236.527C134.652 236.527 19.5696 161.03 69.3281 130.611C119.075 100.191 79.3996 91.1188 78.6988 58.6697C78.0093 26.2205 504.325 81.3055 245.303 196.834" fill="#F2F8FF"/>
<path d="M134.652 236.527C134.652 236.527 19.5696 161.03 69.3281 130.611C119.075 100.191 79.3996 91.1188 78.6988 58.6697C78.0093 26.2205 504.325 81.3055 245.303 196.834" stroke="#B4D6FF" stroke-width="0.33" stroke-miterlimit="10"/>
<path d="M134.55 236.729C134.55 236.729 21.4798 160.603 71.8148 130.611C122.138 100.618 82.7567 91.2823 82.8132 58.9085C82.8697 26.5348 506.879 84.5035 245.856 197.915" fill="#F2F8FF"/>
<path d="M134.55 236.729C134.55 236.729 21.4798 160.603 71.8148 130.611C122.138 100.618 82.7567 91.2823 82.8132 58.9085C82.8697 26.5348 506.879 84.5035 245.856 197.915" stroke="#B4D6FF" stroke-width="0.33" stroke-miterlimit="10"/>
<path d="M134.459 236.929C134.459 236.929 23.4015 160.176 74.3016 130.611C125.202 101.045 86.1252 91.4518 86.9278 59.1534C87.7303 26.8551 509.445 87.7011 246.399 199.002" fill="#F2F8FF"/>
<path d="M134.459 236.929C134.459 236.929 23.4015 160.176 74.3016 130.611C125.202 101.045 86.1252 91.4518 86.9278 59.1534C87.7303 26.8551 509.445 87.7011 246.399 199.002" stroke="#B4D6FF" stroke-width="0.33" stroke-miterlimit="10"/>
<path d="M134.358 237.13C134.358 237.13 25.3118 159.749 76.7884 130.604C128.265 101.466 89.4937 91.615 91.031 59.3858C92.5683 27.1628 511.989 90.8925 246.93 200.076" fill="#F2F8FF"/>
<path d="M134.358 237.13C134.358 237.13 25.3118 159.749 76.7884 130.604C128.265 101.466 89.4937 91.615 91.031 59.3858C92.5683 27.1628 511.989 90.8925 246.93 200.076" stroke="#B4D6FF" stroke-width="0.33" stroke-miterlimit="10"/>
<path d="M134.267 237.332C134.267 237.332 27.222 159.315 79.2752 130.604C131.328 101.887 92.8621 91.7785 95.1454 59.6309C97.4288 27.4834 514.555 94.0905 247.484 201.157" fill="#F2F8FF"/>
<path d="M134.267 237.332C134.267 237.332 27.222 159.315 79.2752 130.604C131.328 101.887 92.8621 91.7785 95.1454 59.6309C97.4288 27.4834 514.555 94.0905 247.484 201.157" stroke="#B4D6FF" stroke-width="0.33" stroke-miterlimit="10"/>
<path d="M134.166 237.539C134.166 237.539 29.1324 158.888 81.762 130.598C134.392 102.308 96.2306 91.9418 99.26 59.8634C102.289 27.7849 517.109 97.2757 248.027 202.237" fill="#F2F8FF"/>
<path d="M134.166 237.539C134.166 237.539 29.1324 158.888 81.762 130.598C134.392 102.308 96.2306 91.9418 99.26 59.8634C102.289 27.7849 517.109 97.2757 248.027 202.237" stroke="#B4D6FF" stroke-width="0.33" stroke-miterlimit="10"/>
<path d="M134.075 237.74C134.075 237.74 31.0428 158.461 84.2489 130.598C137.455 102.735 99.5992 92.1113 103.375 60.1082C107.15 28.1051 519.675 100.48 248.569 203.324" fill="#F2F8FF"/>
<path d="M134.075 237.74C134.075 237.74 31.0428 158.461 84.2489 130.598C137.455 102.735 99.5992 92.1113 103.375 60.1082C107.15 28.1051 519.675 100.48 248.569 203.324" stroke="#B4D6FF" stroke-width="0.33" stroke-miterlimit="10"/>
<path d="M133.974 237.941C133.974 237.941 32.9532 158.034 86.7357 130.598C140.518 103.162 102.956 92.2748 107.478 60.3471C111.999 28.4194 522.219 103.671 249.101 204.405" fill="#F2F8FF"/>
<path d="M133.974 237.941C133.974 237.941 32.9532 158.034 86.7357 130.598C140.518 103.162 102.956 92.2748 107.478 60.3471C111.999 28.4194 522.219 103.671 249.101 204.405" stroke="#B4D6FF" stroke-width="0.33" stroke-miterlimit="10"/>
<path d="M133.872 238.142C133.872 238.142 34.8633 157.607 89.2224 130.592C143.581 103.583 106.325 92.4383 111.592 60.586C116.86 28.7274 524.784 106.869 249.655 205.486" fill="#F2F8FF"/>
<path d="M133.872 238.142C133.872 238.142 34.8633 157.607 89.2224 130.592C143.581 103.583 106.325 92.4383 111.592 60.586C116.86 28.7274 524.784 106.869 249.655 205.486" stroke="#B4D6FF" stroke-width="0.33" stroke-miterlimit="10"/>
<path d="M133.781 238.343C133.781 238.343 36.7849 157.173 91.7092 130.592C146.645 104.004 109.693 92.6015 115.707 60.8246C121.72 29.0477 527.339 110.061 250.197 206.566" fill="#F2F8FF"/>
<path d="M133.781 238.343C133.781 238.343 36.7849 157.173 91.7092 130.592C146.645 104.004 109.693 92.6015 115.707 60.8246C121.72 29.0477 527.339 110.061 250.197 206.566" stroke="#B4D6FF" stroke-width="0.33" stroke-miterlimit="10"/>
<path d="M133.679 238.544C133.679 238.544 38.6952 156.746 94.1959 130.592C149.697 104.431 113.062 92.771 119.81 61.0632C126.569 29.3554 529.882 113.258 250.728 207.647" fill="#F2F8FF"/>
<path d="M133.679 238.544C133.679 238.544 38.6952 156.746 94.1959 130.592C149.697 104.431 113.062 92.771 119.81 61.0632C126.569 29.3554 529.882 113.258 250.728 207.647" stroke="#B4D6FF" stroke-width="0.33" stroke-miterlimit="10"/>
<path d="M133.589 238.745C133.589 238.745 40.6056 156.319 96.6829 130.586C152.76 104.852 116.43 92.9345 123.925 61.3021C131.419 29.6697 532.448 116.45 251.271 208.727" fill="#F2F8FF"/>
<path d="M133.589 238.745C133.589 238.745 40.6056 156.319 96.6829 130.586C152.76 104.852 116.43 92.9345 123.925 61.3021C131.419 29.6697 532.448 116.45 251.271 208.727" stroke="#B4D6FF" stroke-width="0.33" stroke-miterlimit="10"/>
<path d="M133.487 238.946C133.487 238.946 42.516 155.891 99.1697 130.585C155.823 105.28 119.799 93.0977 128.039 61.5407C136.279 29.9837 535.003 119.641 251.814 209.808" fill="#F2F8FF"/>
<path d="M133.487 238.946C133.487 238.946 42.516 155.891 99.1697 130.585C155.823 105.28 119.799 93.0977 128.039 61.5407C136.279 29.9837 535.003 119.641 251.814 209.808" stroke="#B4D6FF" stroke-width="0.33" stroke-miterlimit="10"/>
<path d="M133.397 239.153C133.397 239.153 44.4261 155.464 101.656 130.579C158.886 105.7 123.156 93.261 132.153 61.7794C141.151 30.2977 537.569 122.839 252.367 210.888" fill="#F2F8FF"/>
<path d="M133.397 239.153C133.397 239.153 44.4261 155.464 101.656 130.579C158.886 105.7 123.156 93.261 132.153 61.7794C141.151 30.2977 537.569 122.839 252.367 210.888" stroke="#B4D6FF" stroke-width="0.33" stroke-miterlimit="10"/>
<path d="M133.295 239.354C133.295 239.354 46.3365 155.037 104.143 130.579C161.95 106.121 126.524 93.4308 136.257 62.0182C145.989 30.6057 540.112 126.031 252.899 211.969" fill="#F2F8FF"/>
<path d="M133.295 239.354C133.295 239.354 46.3365 155.037 104.143 130.579C161.95 106.121 126.524 93.4308 136.257 62.0182C145.989 30.6057 540.112 126.031 252.899 211.969" stroke="#B4D6FF" stroke-width="0.33" stroke-miterlimit="10"/>
<path d="M133.194 239.555C133.194 239.555 48.2582 154.603 106.641 130.579C165.025 106.549 129.904 93.594 140.383 62.2632C150.861 30.926 542.689 129.235 253.453 213.056" fill="#F2F8FF"/>
<path d="M133.194 239.555C133.194 239.555 48.2582 154.603 106.641 130.579C165.025 106.549 129.904 93.594 140.383 62.2632C150.861 30.926 542.689 129.235 253.453 213.056" stroke="#B4D6FF" stroke-width="0.33" stroke-miterlimit="10"/>
<path d="M133.103 239.757C133.103 239.757 50.1685 154.176 109.128 130.573C168.088 106.97 133.261 93.7575 144.486 62.4957C155.71 31.234 545.233 132.42 253.984 214.13" fill="#F2F8FF"/>
<path d="M133.103 239.757C133.103 239.757 50.1685 154.176 109.128 130.573C168.088 106.97 133.261 93.7575 144.486 62.4957C155.71 31.234 545.233 132.42 253.984 214.13" stroke="#B4D6FF" stroke-width="0.33" stroke-miterlimit="10"/>
<path d="M133.001 239.958C133.001 239.958 52.0787 153.749 111.615 130.573C171.14 107.397 136.63 93.9207 148.6 62.7343C160.571 31.548 547.798 135.618 254.526 215.211" fill="#F2F8FF"/>
<path d="M133.001 239.958C133.001 239.958 52.0787 153.749 111.615 130.573C171.14 107.397 136.63 93.9207 148.6 62.7343C160.571 31.548 547.798 135.618 254.526 215.211" stroke="#B4D6FF" stroke-width="0.33" stroke-miterlimit="10"/>
<path d="M132.911 240.159C132.911 240.159 53.9891 153.322 114.102 130.567C174.214 107.818 140.01 94.0842 152.715 62.9733C165.431 31.8623 550.353 138.809 255.08 216.291" fill="#F2F8FF"/>
<path d="M132.911 240.159C132.911 240.159 53.9891 153.322 114.102 130.567C174.214 107.818 140.01 94.0842 152.715 62.9733C165.431 31.8623 550.353 138.809 255.08 216.291" stroke="#B4D6FF" stroke-width="0.33" stroke-miterlimit="10"/>
<path d="M132.809 240.36C132.809 240.36 55.8993 152.888 116.588 130.567C177.278 108.239 143.367 94.2537 156.829 63.2119C170.292 32.17 552.919 142.007 255.623 217.372" fill="#F2F8FF"/>
<path d="M132.809 240.36C132.809 240.36 55.8993 152.888 116.588 130.567C177.278 108.239 143.367 94.2537 156.829 63.2119C170.292 32.17 552.919 142.007 255.623 217.372" stroke="#B4D6FF" stroke-width="0.33" stroke-miterlimit="10"/>
<path d="M132.719 240.561C132.719 240.561 57.821 152.461 119.075 130.56C180.341 108.659 146.735 94.417 160.944 63.4505C175.141 32.484 555.474 145.198 256.165 218.452" fill="#F2F8FF"/>
<path d="M132.719 240.561C132.719 240.561 57.821 152.461 119.075 130.56C180.341 108.659 146.735 94.417 160.944 63.4505C175.141 32.484 555.474 145.198 256.165 218.452" stroke="#B4D6FF" stroke-width="0.33" stroke-miterlimit="10"/>
<path d="M132.617 240.768C132.617 240.768 59.7199 152.04 121.562 130.567C183.393 109.093 150.104 94.5867 165.047 63.6957C179.99 32.8046 558.028 148.396 256.697 219.546" fill="#F2F8FF"/>
<path d="M132.617 240.768C132.617 240.768 59.7199 152.04 121.562 130.567C183.393 109.093 150.104 94.5867 165.047 63.6957C179.99 32.8046 558.028 148.396 256.697 219.546" stroke="#B4D6FF" stroke-width="0.33" stroke-miterlimit="10"/>
<path d="M132.515 240.969C132.515 240.969 61.6304 151.607 124.038 130.56C186.445 109.514 153.461 94.75 169.15 63.9343C184.84 33.1186 560.572 151.594 257.239 220.626" fill="#F2F8FF"/>
<path d="M132.515 240.969C132.515 240.969 61.6304 151.607 124.038 130.56C186.445 109.514 153.461 94.75 169.15 63.9343C184.84 33.1186 560.572 151.594 257.239 220.626" stroke="#B4D6FF" stroke-width="0.33" stroke-miterlimit="10"/>
<path d="M132.425 241.17C132.425 241.17 63.5521 151.18 126.536 130.56C189.519 109.941 156.841 94.9135 173.276 64.1732C189.712 33.4329 563.149 154.786 257.793 221.707" fill="#F2F8FF"/>
<path d="M132.425 241.17C132.425 241.17 63.5521 151.18 126.536 130.56C189.519 109.941 156.841 94.9135 173.276 64.1732C189.712 33.4329 563.149 154.786 257.793 221.707" stroke="#B4D6FF" stroke-width="0.33" stroke-miterlimit="10"/>
<path d="M132.323 241.371C132.323 241.371 65.4622 150.752 129.022 130.554C192.583 110.356 160.209 95.0767 177.379 64.4056C194.561 33.7344 565.692 157.977 258.324 222.781" fill="#F2F8FF"/>
<path d="M132.323 241.371C132.323 241.371 65.4622 150.752 129.022 130.554C192.583 110.356 160.209 95.0767 177.379 64.4056C194.561 33.7344 565.692 157.977 258.324 222.781" stroke="#B4D6FF" stroke-width="0.33" stroke-miterlimit="10"/>
<path d="M132.233 241.572C132.233 241.572 67.3726 150.319 131.509 130.554C195.646 110.783 163.566 95.2465 181.494 64.6507C199.421 34.0549 568.258 161.175 258.867 223.868" fill="#F2F8FF"/>
<path d="M132.233 241.572C132.233 241.572 67.3726 150.319 131.509 130.554C195.646 110.783 163.566 95.2465 181.494 64.6507C199.421 34.0549 568.258 161.175 258.867 223.868" stroke="#B4D6FF" stroke-width="0.33" stroke-miterlimit="10"/>
<path d="M132.131 241.773C132.131 241.773 69.2829 149.892 133.996 130.548C198.709 111.204 166.935 95.4034 185.608 64.883C204.282 34.3626 570.813 164.366 259.421 224.942" fill="#F2F8FF"/>
<path d="M132.131 241.773C132.131 241.773 69.2829 149.892 133.996 130.548C198.709 111.204 166.935 95.4034 185.608 64.883C204.282 34.3626 570.813 164.366 259.421 224.942" stroke="#B4D6FF" stroke-width="0.33" stroke-miterlimit="10"/>
<path d="M132.04 241.974C132.04 241.974 71.2044 149.464 136.494 130.548C201.784 111.631 170.314 95.5729 189.734 65.1279C209.154 34.6829 573.379 167.564 259.975 226.029" fill="#F2F8FF"/>
<path d="M132.04 241.974C132.04 241.974 71.2044 149.464 136.494 130.548C201.784 111.631 170.314 95.5729 189.734 65.1279C209.154 34.6829 573.379 167.564 259.975 226.029" stroke="#B4D6FF" stroke-width="0.33" stroke-miterlimit="10"/>
<path d="M131.939 242.175C131.939 242.175 73.1033 149.031 138.969 130.541C204.836 112.052 173.672 95.7364 193.826 65.3605C213.98 34.9909 575.922 170.75 260.495 227.104" fill="#F2F8FF"/>
<path d="M131.939 242.175C131.939 242.175 73.1033 149.031 138.969 130.541C204.836 112.052 173.672 95.7364 193.826 65.3605C213.98 34.9909 575.922 170.75 260.495 227.104" stroke="#B4D6FF" stroke-width="0.33" stroke-miterlimit="10"/>
<path d="M131.837 242.383C131.837 242.383 75.0139 148.61 141.456 130.548C207.899 112.486 177.04 95.906 197.941 65.6118C218.841 35.3112 578.477 173.96 261.037 228.197" fill="#F2F8FF"/>
<path d="M131.837 242.383C131.837 242.383 75.0139 148.61 141.456 130.548C207.899 112.486 177.04 95.906 197.941 65.6118C218.841 35.3112 578.477 173.96 261.037 228.197" stroke="#B4D6FF" stroke-width="0.33" stroke-miterlimit="10"/>
<path d="M131.747 242.584C131.747 242.584 76.9354 148.183 143.943 130.542C210.962 112.9 180.409 96.0695 202.055 65.8443C223.701 35.6192 581.042 177.145 261.591 229.271" fill="#F2F8FF"/>
<path d="M131.747 242.584C131.747 242.584 76.9354 148.183 143.943 130.542C210.962 112.9 180.409 96.0695 202.055 65.8443C223.701 35.6192 581.042 177.145 261.591 229.271" stroke="#B4D6FF" stroke-width="0.33" stroke-miterlimit="10"/>
<path d="M131.645 242.785C131.645 242.785 78.8457 147.756 146.43 130.541C214.014 113.327 183.766 96.239 206.158 66.083C228.551 35.9332 583.586 180.343 262.123 230.352" fill="#F2F8FF"/>
<path d="M131.645 242.785C131.645 242.785 78.8457 147.756 146.43 130.541C214.014 113.327 183.766 96.239 206.158 66.083C228.551 35.9332 583.586 180.343 262.123 230.352" stroke="#B4D6FF" stroke-width="0.33" stroke-miterlimit="10"/>
<path d="M131.554 242.986C131.554 242.986 80.7561 147.322 148.928 130.535C217.089 113.748 187.146 96.3962 210.284 66.3218C233.423 36.2475 586.163 183.535 262.676 231.432" fill="#F2F8FF"/>
<path d="M131.554 242.986C131.554 242.986 80.7561 147.322 148.928 130.535C217.089 113.748 187.146 96.3962 210.284 66.3218C233.423 36.2475 586.163 183.535 262.676 231.432" stroke="#B4D6FF" stroke-width="0.33" stroke-miterlimit="10"/>
<path d="M131.453 243.187C131.453 243.187 82.6663 146.895 151.404 130.535C220.141 114.176 190.503 96.5657 214.387 66.5605C238.272 36.5615 588.706 186.732 263.208 232.513" fill="#F2F8FF"/>
<path d="M131.453 243.187C131.453 243.187 82.6663 146.895 151.404 130.535C220.141 114.176 190.503 96.5657 214.387 66.5605C238.272 36.5615 588.706 186.732 263.208 232.513" stroke="#B4D6FF" stroke-width="0.33" stroke-miterlimit="10"/>
<path d="M131.362 243.388C131.362 243.388 84.588 146.468 153.902 130.529C223.215 114.596 193.883 96.7226 218.513 66.7991C243.144 36.8692 591.284 189.924 263.773 233.593" fill="#F2F8FF"/>
<path d="M131.362 243.388C131.362 243.388 84.588 146.468 153.902 130.529C223.215 114.596 193.883 96.7226 218.513 66.7991C243.144 36.8692 591.284 189.924 263.773 233.593" stroke="#B4D6FF" stroke-width="0.33" stroke-miterlimit="10"/>
<path d="M131.26 243.589C131.26 243.589 86.4869 146.034 156.388 130.529C226.279 115.017 197.251 96.8924 222.616 67.038C247.993 37.1835 593.827 193.115 264.304 234.674" fill="#F2F8FF"/>
<path d="M131.26 243.589C131.26 243.589 86.4869 146.034 156.388 130.529C226.279 115.017 197.251 96.8924 222.616 67.038C247.993 37.1835 593.827 193.115 264.304 234.674" stroke="#B4D6FF" stroke-width="0.33" stroke-miterlimit="10"/>
<path d="M131.159 243.79C131.159 243.79 88.3973 145.607 158.864 130.523C229.331 115.438 200.608 97.0559 226.72 67.2768C252.831 37.4977 596.382 196.313 264.835 235.755" fill="#F2F8FF"/>
<path d="M131.159 243.79C131.159 243.79 88.3973 145.607 158.864 130.523C229.331 115.438 200.608 97.0559 226.72 67.2768C252.831 37.4977 596.382 196.313 264.835 235.755" stroke="#B4D6FF" stroke-width="0.33" stroke-miterlimit="10"/>
<path d="M131.068 243.997C131.068 243.997 90.3189 145.186 161.362 130.529C232.405 115.872 203.977 97.2255 230.845 67.5218C257.703 37.8181 598.947 199.511 265.389 236.842" fill="#F2F8FF"/>
<path d="M131.068 243.997C131.068 243.997 90.3189 145.186 161.362 130.529C232.405 115.872 203.977 97.2255 230.845 67.5218C257.703 37.8181 598.947 199.511 265.389 236.842" stroke="#B4D6FF" stroke-width="0.33" stroke-miterlimit="10"/>
<path d="M130.967 244.198C130.967 244.198 92.2293 144.752 163.838 130.523C235.457 116.293 207.334 97.3887 234.937 67.7541C262.541 38.1195 601.491 202.702 265.909 237.916" fill="#F2F8FF"/>
<path d="M130.967 244.198C130.967 244.198 92.2293 144.752 163.838 130.523C235.457 116.293 207.334 97.3887 234.937 67.7541C262.541 38.1195 601.491 202.702 265.909 237.916" stroke="#B4D6FF" stroke-width="0.33" stroke-miterlimit="10"/>
<path d="M130.876 244.399C130.876 244.399 94.1395 144.325 166.336 130.523C238.532 116.72 210.714 97.5584 239.063 67.9993C267.413 38.4401 604.057 205.9 266.474 239.003" fill="#F2F8FF"/>
<path d="M130.876 244.399C130.876 244.399 94.1395 144.325 166.336 130.523C238.532 116.72 210.714 97.5584 239.063 67.9993C267.413 38.4401 604.057 205.9 266.474 239.003" stroke="#B4D6FF" stroke-width="0.33" stroke-miterlimit="10"/>
<path d="M130.775 244.6C130.775 244.6 96.0499 143.898 168.823 130.516C241.595 117.135 214.082 97.7154 243.178 68.2316C272.273 38.7478 606.623 209.092 267.017 240.077" fill="#F2F8FF"/>
<path d="M130.775 244.6C130.775 244.6 96.0499 143.898 168.823 130.516C241.595 117.135 214.082 97.7154 243.178 68.2316C272.273 38.7478 606.623 209.092 267.017 240.077" stroke="#B4D6FF" stroke-width="0.33" stroke-miterlimit="10"/>
</svg>
